<svg width="64" height="64" xmlns="http://www.w3.org/2000/svg" xmlns:xlink="http://www.w3.org/1999/xlink" overflow="hidden"><defs><clipPath id="clip0"><path d="M3.27513 31.037 43.7152 8.35006 66.4019 48.7898 25.9619 71.4767Z" fill-rule="evenodd" clip-rule="evenodd"/></clipPath><clipPath id="clip1"><path d="M3.27513 31.037 43.7152 8.35006 66.4019 48.7898 25.9619 71.4767Z" fill-rule="evenodd" clip-rule="evenodd"/></clipPath><clipPath id="clip2"><path d="M3.27513 31.037 43.7152 8.35006 66.4019 48.7898 25.9619 71.4767Z" fill-rule="evenodd" clip-rule="evenodd"/></clipPath></defs><g transform="translate(-3 -8)"><g clip-path="url(#clip0)"><g clip-path="url(#clip1)"><g clip-path="url(#clip2)"><path d="M9.66015 23.8123 9.66015 29.4635C9.66015 32.12 15.6977 34.7765 23.1844 34.7765 30.671 34.7765 36.7086 32.12 36.7086 29.4635L36.7086 23.8123 23.1844 28.594 9.66015 23.8123Z" fill="#6933D5" transform="matrix(0.872141 -0.489273 0.489268 0.872133 3.27513 31.037)"/><path d="M23.1844 26.5171 44.2435 19.1271 23.1844 11.5922 2.12523 19.1271 4.83007 20.0931 4.83007 28.9804C4.83007 29.5118 5.26478 29.9465 5.79609 29.9465 6.3274 29.9465 6.7621 29.5118 6.7621 28.9804L6.7621 20.7693 23.1844 26.5171Z" fill="#6933D5" transform="matrix(0.872141 -0.489273 0.489268 0.872133 3.27513 31.037)"/></g></g></g></g></svg>