<svg width="319" height="318" xmlns="http://www.w3.org/2000/svg" xmlns:xlink="http://www.w3.org/1999/xlink" overflow="hidden"><g transform="translate(-559 -81)"><g><g><g><path d="M805.675 323.043 746.237 302.57 745.907 302.57 722.132 294.315 833.412 147.372 805.675 323.043ZM731.378 311.816 709.584 333.609 715.528 306.532 731.378 311.816 731.378 311.816ZM704.961 294.975C704.301 295.635 703.971 296.626 703.641 297.617L702.65 301.909 696.046 331.958 680.196 285.729 803.694 166.854 708.924 290.022 704.961 294.975ZM609.531 256.01 803.033 152.985 670.62 276.814 609.531 256.01ZM847.942 118.644C845.96 116.993 842.989 116.993 840.677 118.314L590.049 251.387C587.737 252.708 586.417 255.02 586.417 257.661 586.417 260.303 588.398 262.615 590.709 263.275L659.393 286.72 667.978 289.692 669.959 295.305 690.432 356.724 690.432 357.054 690.432 357.384C691.093 359.366 693.074 361.017 695.385 361.677 697.697 362.337 700.008 361.677 701.659 360.026L701.99 359.696 703.971 357.715 745.577 316.769 808.977 338.562C810.958 339.223 812.94 338.893 814.591 337.902 816.242 336.911 817.562 335.26 817.893 333.279L850.914 125.248C851.244 122.276 849.923 119.965 847.942 118.644Z" fill="#04060F"/></g></g></g></g></svg>