<svg width="30" height="30" xmlns="http://www.w3.org/2000/svg" xmlns:xlink="http://www.w3.org/1999/xlink" overflow="hidden"><g transform="translate(-4 -159)"><g><g><g><path d="M29.8281 182.837 26.0521 179.061C25.5385 178.548 24.8438 178.367 24.1792 178.488L22.85 177.158C24.0281 175.648 24.7229 173.715 24.7229 171.66 24.7229 166.676 20.6448 162.598 15.6604 162.598 10.676 162.598 6.59792 166.676 6.59792 171.66 6.59792 176.645 10.676 180.723 15.6604 180.723 17.7146 180.723 19.6177 180.028 21.1583 178.85L22.4875 180.179C22.3667 180.844 22.5479 181.539 23.0615 182.052L26.8375 185.828C27.2604 186.251 27.8042 186.462 28.3479 186.462 28.8917 186.462 29.4354 186.251 29.8583 185.828 30.6437 184.982 30.6437 183.653 29.8281 182.837ZM15.6302 178.88C11.6427 178.88 8.38021 175.618 8.38021 171.63 8.38021 167.643 11.6427 164.38 15.6302 164.38 19.6177 164.38 22.8802 167.643 22.8802 171.63 22.8802 175.618 19.6177 178.88 15.6302 178.88Z"/></g></g></g></g></svg>