<svg width="254" height="255" xmlns="http://www.w3.org/2000/svg" xmlns:xlink="http://www.w3.org/1999/xlink" overflow="hidden"><g transform="translate(-657 15)"><g><g><g><path d="M882.328 185.238 849.385 152.295C844.905 147.815 838.844 146.233 833.046 147.288L821.45 135.692C831.728 122.515 837.79 105.648 837.79 87.7271 837.79 44.2427 802.211 8.66459 758.727 8.66459 715.243 8.66459 679.665 44.2427 679.665 87.7271 679.665 131.211 715.243 166.79 758.727 166.79 776.648 166.79 793.251 160.728 806.692 150.45L818.287 162.046C817.233 167.844 818.815 173.905 823.295 178.385L856.237 211.328C859.927 215.018 864.671 216.863 869.415 216.863 874.158 216.863 878.902 215.018 882.592 211.328 889.444 203.949 889.444 192.353 882.328 185.238ZM758.464 150.714C723.676 150.714 695.214 122.251 695.214 87.4635 695.214 52.676 723.676 24.2135 758.464 24.2135 793.251 24.2135 821.714 52.676 821.714 87.4635 821.714 122.251 793.251 150.714 758.464 150.714Z" fill="#04060F"/></g></g></g></g></svg>